<?xml version="1.0" encoding="UTF-8"?>
<svg id="Layer_1" data-name="Layer 1" xmlns="http://www.w3.org/2000/svg" viewBox="0 0 512 512">
  <defs>
    <style>
      .cls-1 {
        fill: #999;
      }
    </style>
  </defs>
  <path class="cls-1" d="M382.22,260.26c4.5-.34,9.1.31,13.56.81,4.5.51,9.17.93,13.58,2.04,4.3,1.09,8.44,2.45,12.29,4.67,3.9,2.25,6.45,5.01,9.24,8.49,3.14,3.92,7.4,7.67,11.29,10.8,1.95,1.57,3.7,3.59,6.14,4.41,2.37.8,4.79,1.06,7.23,1.51,2.24.41,4.99,1.17,7.37.86l.22,1.95c-1.41.19-2.89.12-4.45-.13-3.57-.58-7.73-.79-11.09-2.22-3.79-1.62-7.02-4.8-10.07-7.52-3.13-2.78-6.33-5.91-8.91-9.22-6-7.66-14.81-10.93-24.2-12.38-5.06-.78-10.13-1.37-15.24-1.79-2.06-.17-4.47-.44-6.79-.26l-.15-2.03Z"/>
  <path class="cls-1" d="M390.88,356.56c.51.1,1.03.17,1.56.22l-.21,1.94c-1.55-.15-3.08-.36-4.66-.65-3.1-.58-6.62-1.69-9.53-2.89-2.49-1.03-4.9-2.45-6.6-4.59-4.28-5.42-5.14-12.65-4.85-19.36.16-3.72.52-7.49,1.29-11.14,1.03-4.88,3.51-9.47,4.22-14.4,1.64-11.51-10.45-43.66,9.75-45.4.12,0,.25-.02.37-.03l.15,2.03c-2.34.18-4.57.83-6.21,2.5-3.67,3.75-3.88,9.6-3.86,14.55,0,4.8.46,9.49,1.16,14.23.67,4.57,1.4,8.93.48,13.52-.96,4.78-3.28,9.14-4.12,13.95-1.18,6.81-2.03,14.28-.22,21.06,1.21,4.5,3.69,8.85,8.21,10.72,4.14,1.71,8.67,2.91,13.06,3.74Z"/>
  <path class="cls-1" d="M338.74,369.81c-7.04-3.72-14.67-9.44-17.61-17.17-.96-2.51-2.01-4.76-2.8-7.16l1.83-.51c.55,1.87,1.78,3.28,2.35,5.1.74,2.37,1.67,4.33,3.22,6.3,2.49,3.15,5.46,6.64,8.9,8.76,6.56,4.05,13.43,6.07,21.14,6.49,9.44.51,18.92.38,28.37.38,4.4,0,8.77.61,13.16.64,4.18.03,6.28-.86,6.74-5.24.15-1.44.18-2.79-.14-4.2-.74-3.32-3.08-3.69-5.89-3.95-1.97-.18-3.88-.32-5.79-.53l.21-1.94c3.67.39,7.55-.06,10.92,1.59,2.18,1.07,2.73,4.15,2.89,6.31.36,4.71-1.22,9.88-6.56,10.03-5.71.15-11.41-.62-17.13-.62-5.57,0-11.14.01-16.7-.08-8.98-.15-18.94.12-27.11-4.2Z"/>
  <path class="cls-1" d="M317.25,340.91c-.7-5.37-1.85-10.16-4.13-15.1-3.78-8.2-8.62-16.61-10.61-25.49,0-.02-.02-.03-.03-.05-.86-2.32-1.16-5.42-1.65-8.48l1.88-.3c.44,2.65.79,5.3,1.56,7.56.09.11.16.25.2.41,1.71,8.07,6.07,15.78,9.52,23.22,1.61,3.46,3.41,7.02,4.24,10.78.84,3.79.85,7.78,1.95,11.52l-1.83.51c-.48-1.43-.86-2.93-1.08-4.57Z"/>
  <path class="cls-1" d="M294.75,281.45c-3.48,1.9-5.96,5.35-8.93,7.92-3.02,2.61-5.75,5.53-8.79,8.12-6.34,5.37-13.1,10.21-19.39,15.64-3.24,2.8-6.55,5.73-8.84,9.38-1.53,2.43-2.87,5-2.57,7.98.21,2.16.56,4.3.76,6.46.57,6.15-1.84,11.99-5.98,16.41l-1.52-1.17c1.95-2.06,3.52-4.42,4.41-7.25,1.08-3.42,1.25-6.69.75-10.24-.3-2.05-.89-4.45-.47-6.53.83-4.12,3.13-7.52,5.84-10.66,6.49-7.48,15.15-13.02,22.77-19.24,4.07-3.33,7.73-7.07,11.67-10.52,3.11-2.72,5.72-6.2,9.38-8.21.32-.17.6-.16.85-.04.25-.23.6-.34,1.02-.17,5.01,2.1,6.16,7.11,6.99,12.15l-1.88.3c-.73-4.47-1.9-8.82-5.84-10.48,0,0-.01,0-.03-.01-.06.06-.13.11-.21.15Z"/>
  <path class="cls-1" d="M230.49,361.86c-3.04,2.04-7.77,3.22-9.64,6.64-1.64,3-.36,5.84.75,8.71.27.71.56,1.77.29,2.51-.59,1.59-4.42,1.95-5.7,2.14-3.67.57-7.35.65-11.06.65-3.36,0-6.89.49-10.21-.1-6.1-1.09-9.16-6.13-12.69-10.75-3.88-5.08-9.63-11.88-6.24-18.66,2.07-4.16,7.32-5.27,11.19-6.98,2.37-1.05,5.26-2.56,5.58-5.48.04-.4-.67-2.4-.85-3.13-.59-2.43-1.22-4.86-1.73-7.31-2.12-10.04-2.28-19.77.16-29.77,1.05-4.27,3.15-10.81-.31-14.6-2.25-2.47-5.59-3.41-8.81-3.79-3.57-.42-8.8-1.25-11.98.54-4.91,2.77-5.83,8.64-7.75,13.53-1.96,5.02-4.3,9.62-7.1,13.94l-1.6-1.02c.28-.44.55-.89.81-1.33,2.51-4.37,4.66-8.86,6.41-13.58,1.21-3.26,2.05-7.32,4.26-10.1,3.82-4.81,9.17-4.75,14.81-4.3,4.26.34,9.72,1.1,12.55,4.76,3.8,4.9,2.02,11.2.67,16.69-2.33,9.55-2.2,19.08-.06,28.67.74,3.34,2.09,6.86,2.66,10.11.24,1.36-.63,3.34-1.49,4.36-3.05,3.67-7.94,4.3-11.94,6.49-9.2,5.05-1.26,14.69,2.96,20.41,3.03,4.12,6.1,8.96,11.7,9.34,4.21.28,8.56.07,12.78-.05,3.07-.09,6.27-.24,9.23-1.1,2.86-.83,1.63-.96.86-3.13-.25-.72-.69-1.8-.83-2.56-.66-3.52.38-6.57,3.28-8.77,5.48-4.15,13.04-7.42,18.04-12.66l1.52,1.17c-.39.41-.79.81-1.21,1.19-2.85,2.63-6.1,5.15-9.31,7.31Z"/>
  <path class="cls-1" d="M133.63,346.96c-.14-6.98,1.2-13.84,4.87-19.87,4.06-6.65,10.11-11.61,14.27-18.16l1.6,1.02c-2.35,3.61-5.01,7.03-8.06,10.33-6.9,7.49-10.61,15.94-10.61,26.06,0,.27,0,.54,0,.81h0v.03c.08,2.63,1.49,5.16,3.26,7.05,1.76,1.87,3.63,2.02,6.03,1.88,2.74-.15,5.51-.15,8.25.11,5.18.49,10.73,1.78,14.39,5.78,6.86,7.5-1.97,13.93-8.98,16.31-5.81,1.97-11.72,1.9-17.79,1.68-7.38-.28-14.73.66-22.09.35-6.56-.28-12.35-1.95-18.15-5-3.25-1.71-6.44-3.62-9.85-5.04-1.36-.56-2.73-.97-4.11-1.36.98,1.54,1.84,3.19,2.04,4.74l-1.88.05c-.04-.28-.12-.58-.27-.91-.84-1.85-2.07-3.43-3.26-5.06-.61-.84.13-2.01,1.17-1.66,2.72.91,5.44,1.47,8.07,2.7,2.48,1.17,4.87,2.48,7.29,3.77,6.1,3.26,12.14,5.53,19.14,5.68,6.5.15,12.98-.64,19.48-.44,6.43.2,13.14.86,19.32-1.4,3.51-1.28,9.29-3.55,10.29-7.66,1.55-6.37-8.37-9.67-12.98-10.23-2.6-.31-5.23-.48-7.85-.41-2.42.06-4.69.39-7.02-.37-3.79-1.23-6.28-6.66-6.54-10.4-.01-.07-.02-.14-.03-.22v-.18Z"/>
  <path class="cls-1" d="M20.88,324.2c5.36-7.14,11.5-13.56,15.15-21.83,1.92-4.35,2.91-9.3,4.11-13.89,1.17-4.49,1.91-9.03,1.99-13.67.13-8.72-1.73-17.61-5.23-25.58-1.87-4.24-4.55-8.11-6.7-12.21-2.4-4.59-4.2-9.41-5.35-14.47v-.06c-2.21-10.98-2.99-21.94,1.53-32.47.18-.41.38-.83.6-1.24,2.21-3.97,6.6-7.69,10.27-9.91,3.86-2.34,8.13-3.9,11.93-6.36,8.08-5.25,14.62-11.96,22.03-18,3.88-3.17,8.29-4.84,12.88-6.73,4.84-1.99,9.69-3.98,14.58-5.84,9.61-3.66,19.46-6.62,29.67-8.01,10.7-1.46,21.54-.4,32.21.85,21.74,2.55,42.55,8.2,63.6,13.95,18.65,5.1,38.12,10.45,57.47,6.55,9.22-1.86,18.11-5.01,27.36-6.72,4.61-.85,9.29-1.18,13.98-.85,5.42.38,10.58,2.25,15.67,4.02,5.04,1.75,9.53,4.18,14.15,6.8,4.13,2.35,8.71,3.87,13.12,5.6,9.6,3.76,17.12,10.39,25.98,15.43,3.83,2.18,7.9,3.78,12.03,5.28,5.04,1.83,9.64,4.71,14.53,6.86,3.89,1.71,8.2,2.49,12.35,3.3,4.28.85,7.87,1.35,12.04-.23,2.68-1.02,4.64-3.38,7.35-4.22,4.57-1.42,4.57,6.24,4.54,8.48-.04,5.09.44,8.53,4.12,12.34,4.19,4.33,9.47,7.35,13.61,11.8,5.11,5.49,7.32,12.9,10.07,19.7,2.44,6.07,5.9,11.74,9.41,17.26,3.2,5.02,8.18,12.47,4.35,18.35-3.41,5.25-10.64,3.81-15.5,2.21-4.45-1.46-10.86-2.99-13.99-6.72-.27-.32-.86-.51-1.24-.27-.22.14-.44.27-.65.41-.41.26-.65.62-.58,1.12.51,3.6.58,7.01,2.63,10.12,1.12,1.7,2.61,3.09,1.17,5.52-.81,1.38-2.59,2.3-4.07,2.74-.36.11-.74.18-1.12.24-2.38.3-5.13-.45-7.37-.86-2.44-.45-4.86-.71-7.23-1.51-2.44-.82-4.19-2.84-6.14-4.41-3.89-3.13-8.16-6.88-11.29-10.8-2.79-3.48-5.34-6.24-9.24-8.49-3.85-2.22-7.99-3.58-12.29-4.67-4.4-1.11-9.08-1.54-13.58-2.04-4.46-.5-9.05-1.14-13.56-.81-.12,0-.25.02-.37.03-20.2,1.74-8.11,33.89-9.75,45.4-.71,4.93-3.19,9.52-4.22,14.4-.77,3.65-1.13,7.42-1.29,11.14-.29,6.71.57,13.94,4.85,19.36,1.69,2.14,4.11,3.56,6.6,4.59,2.91,1.2,6.43,2.32,9.53,2.89,1.57.3,3.11.5,4.66.65,1.92.21,3.83.35,5.79.53,2.8.26,5.14.64,5.89,3.95.32,1.41.3,2.76.14,4.2-.46,4.38-2.56,5.27-6.74,5.24-4.4-.03-8.76-.64-13.16-.64-9.45,0-18.93.13-28.37-.38-7.71-.42-14.58-2.44-21.14-6.49-3.44-2.12-6.41-5.61-8.9-8.76-1.55-1.97-2.48-3.93-3.22-6.3-.56-1.82-1.79-3.23-2.35-5.1-1.1-3.74-1.1-7.73-1.95-11.52-.83-3.76-2.63-7.31-4.24-10.78-3.45-7.44-7.81-15.15-9.52-23.22-.04-.15-.11-.3-.2-.41-.77-2.25-1.12-4.91-1.56-7.56-.83-5.04-1.98-10.05-6.99-12.15-.42-.17-.77-.06-1.02.17-.25-.12-.53-.13-.85.04-3.67,2.01-6.27,5.49-9.38,8.21-3.95,3.46-7.6,7.19-11.67,10.52-7.62,6.22-16.28,11.76-22.77,19.24-2.72,3.14-5.02,6.53-5.84,10.66-.41,2.08.18,4.47.47,6.53.5,3.55.33,6.82-.75,10.24-.89,2.83-2.46,5.19-4.41,7.25-5,5.25-12.56,8.51-18.04,12.66-2.9,2.2-3.94,5.25-3.28,8.77.14.76.58,1.83.83,2.56.77,2.17,1.99,2.3-.86,3.13-2.96.86-6.16,1-9.23,1.1-4.22.12-8.57.33-12.78.05-5.6-.38-8.67-5.22-11.7-9.34-4.21-5.72-12.16-15.36-2.96-20.41,4-2.19,8.89-2.82,11.94-6.49.86-1.03,1.73-3,1.49-4.36-.58-3.25-1.92-6.78-2.66-10.11-2.14-9.59-2.27-19.12.06-28.67,1.35-5.49,3.13-11.79-.67-16.69-2.83-3.65-8.29-4.42-12.55-4.76-5.64-.45-10.99-.51-14.81,4.3-2.21,2.78-3.05,6.84-4.26,10.1-1.76,4.72-3.91,9.21-6.41,13.58-.26.45-.53.9-.81,1.33-4.16,6.55-10.21,11.51-14.27,18.16-3.67,6.03-5.01,12.89-4.87,19.87v.18c0,.08.01.15.03.22.26,3.74,2.75,9.17,6.54,10.4,2.33.75,4.61.42,7.02.37,2.62-.06,5.25.11,7.85.41,4.61.55,14.53,3.86,12.98,10.23-1,4.11-6.79,6.38-10.29,7.66-6.17,2.26-12.88,1.6-19.32,1.4-6.5-.2-12.98.58-19.48.44-7-.15-13.04-2.42-19.14-5.68-2.42-1.29-4.81-2.61-7.29-3.77-2.63-1.24-5.35-1.8-8.07-2.7-1.04-.34-1.78.82-1.17,1.66,1.19,1.63,2.42,3.21,3.26,5.06.15.33.23.63.27.91.36,3.08-5.27,4.03-7.38,4.38-5.11.84-10.62-.04-15.7-.72-9.94-1.31-20.39-2.74-29.87-6.08-8.54-3-18.9-9.1-21.42-18.45-.67-2.46-.57-5.18-.34-7.68.2-2.3,1.24-4.4,1.56-6.63.74-5.38,4.02-10.11,7.2-14.35Z"/>
  <path class="cls-1" d="M332.31,147.44c5.1,1.64,10.31,3.2,15.1,5.64,4.24,2.16,8.16,4.73,12.61,6.5,4.47,1.78,9.08,3.32,13.35,5.59,4.15,2.21,7.97,4.88,11.81,7.59,4.36,3.08,8.9,5.94,13.85,7.99,4.56,1.89,9.1,3.55,13.51,5.79,4.9,2.49,9.66,4.54,15.05,5.68,4.59.98,9.81,2.7,14.34.65,3.27-1.48,6.08-4.95,9.95-4.34,2.23.35,3.93,2.69,4.43,4.73.86,3.49.06,7.02.58,10.54.67,4.5,4.72,7.43,8.11,10,7.38,5.6,12.87,11.78,16.37,20.45,1.97,4.9,3.72,9.87,6.27,14.51,2.13,3.85,4.4,7.58,6.72,11.31,3.17,5.11,8.31,13.8,3.64,19.61-3.88,4.82-10.27,5.45-15.84,3.66-4.84-1.56-11.46-3.07-15.57-6.62.13,1.45.26,2.92.64,4.31.6,2.2,2.21,3.57,3.02,5.58,1.07,2.69.44,5.34-1.98,7.12-1.64,1.21-3.33,1.85-5.13,2.08l-.22-1.95c.39-.06.77-.13,1.12-.24,1.48-.44,3.25-1.36,4.07-2.74,1.44-2.43-.04-3.82-1.17-5.52-2.04-3.11-2.12-6.53-2.63-10.12-.07-.51.17-.86.58-1.12.21-.14.43-.27.65-.41.39-.25.97-.06,1.24.27,3.13,3.73,9.54,5.26,13.99,6.72,4.86,1.59,12.09,3.04,15.5-2.21,3.82-5.89-1.16-13.34-4.35-18.35-3.51-5.51-6.96-11.19-9.41-17.26-2.75-6.81-4.96-14.22-10.07-19.7-4.14-4.45-9.42-7.47-13.61-11.8-3.69-3.81-4.17-7.26-4.12-12.34.02-2.23.02-9.9-4.54-8.48-2.7.84-4.67,3.2-7.35,4.22-4.17,1.58-7.75,1.08-12.04.23-4.14-.81-8.46-1.59-12.35-3.3-4.9-2.15-9.5-5.04-14.53-6.86-4.13-1.5-8.2-3.09-12.03-5.28-8.86-5.04-16.37-11.67-25.98-15.43-4.41-1.73-8.99-3.25-13.12-5.6-4.62-2.62-9.11-5.05-14.15-6.8-5.09-1.76-10.26-3.64-15.67-4.02-4.69-.33-9.36,0-13.98.85-9.25,1.71-18.14,4.86-27.36,6.72-19.35,3.91-38.82-1.45-57.47-6.55-21.04-5.75-41.86-11.4-63.6-13.95-10.67-1.25-21.51-2.31-32.21-.85-10.21,1.4-20.06,4.35-29.67,8.01-4.9,1.86-9.74,3.85-14.58,5.84-4.59,1.89-8.99,3.56-12.88,6.73-7.42,6.04-13.96,12.75-22.03,18-3.79,2.47-8.07,4.02-11.93,6.36-3.67,2.22-8.06,5.94-10.27,9.91l-1.68-.68c2.39-4.41,5.95-8.25,11.04-11.12,4.1-2.32,8.54-4.06,12.45-6.71,3.48-2.35,6.98-4.81,10.15-7.59,6.29-5.5,11.84-11.72,19.72-14.94,16.66-6.81,33.6-14.41,51.72-16.16,18.91-1.82,38.74,1.66,57.2,5.54,20.67,4.33,40.61,11.55,61.38,15.42,10.02,1.87,19.96,3.03,30.07,1.11,9.25-1.76,18.16-4.91,27.39-6.74,8.6-1.7,17.42-2.19,25.88.53Z"/>
  <path class="cls-1" d="M36.03,302.37c-3.65,8.27-9.79,14.69-15.15,21.83-3.17,4.24-6.46,8.97-7.2,14.35-.32,2.23-1.36,4.33-1.56,6.63-.22,2.51-.32,5.23.34,7.68,2.51,9.36,12.88,15.45,21.42,18.45,9.48,3.34,19.93,4.77,29.87,6.08,5.08.67,10.59,1.56,15.7.72,2.11-.34,7.73-1.3,7.38-4.38l1.88-.05c.24,1.92-.52,3.69-3.28,4.87-8.75,3.77-19.49,1.44-28.5-.1-9.4-1.6-19.18-2.78-27.91-6.86-6.86-3.2-15.26-8.52-17.91-16.08-2.66-7.57-.75-17.49,2.89-24.49,4.33-8.32,11.33-14.72,16.35-22.58,3.02-4.71,4.69-9.44,6.2-14.79,1.4-4.99,2.93-10.05,3.32-15.25.77-10.14-1.03-21.34-5.87-30.36-4.52-8.44-9.29-16.2-11.33-25.68-.02-.09-.03-.18-.03-.27-2.2-11.38-2.68-24.14,2.67-34.01l1.68.68c-.22.41-.43.82-.6,1.24-4.52,10.52-3.74,21.49-1.53,32.47v.06c1.14,5.06,2.94,9.88,5.35,14.47,2.15,4.1,4.83,7.97,6.7,12.21,3.51,7.97,5.37,16.86,5.23,25.58-.08,4.64-.82,9.18-1.99,13.67-1.2,4.59-2.18,9.54-4.11,13.89Z"/>
</svg>